<mxfile host="65bd71144e">
    <diagram id="Y9RD7O0h1-Z9MMjVUp-p" name="Page-1">
        <mxGraphModel dx="1312" dy="671" grid="1" gridSize="10" guides="1" tooltips="1" connect="1" arrows="1" fold="1" page="0" pageScale="1" pageWidth="413" pageHeight="291" math="0" shadow="0">
            <root>
                <mxCell id="0"/>
                <mxCell id="1" parent="0"/>
                <mxCell id="5" style="edgeStyle=none;html=1;" edge="1" parent="1" source="2" target="17">
                    <mxGeometry relative="1" as="geometry">
                        <mxPoint x="385" y="80" as="targetPoint"/>
                    </mxGeometry>
                </mxCell>
                <mxCell id="2" value="User opens extension" style="html=1;dashed=0;whitespace=wrap;shape=mxgraph.dfd.start" vertex="1" parent="1">
                    <mxGeometry x="300" y="20" width="170" height="30" as="geometry"/>
                </mxCell>
                <mxCell id="7" style="edgeStyle=none;html=1;" edge="1" parent="1" source="17" target="6">
                    <mxGeometry relative="1" as="geometry">
                        <mxPoint x="511.25" y="103.38169642857144" as="sourcePoint"/>
                    </mxGeometry>
                </mxCell>
                <mxCell id="8" value="No" style="edgeLabel;html=1;align=center;verticalAlign=middle;resizable=0;points=[];" vertex="1" connectable="0" parent="7">
                    <mxGeometry x="0.4146" y="3" relative="1" as="geometry">
                        <mxPoint as="offset"/>
                    </mxGeometry>
                </mxCell>
                <mxCell id="14" style="edgeStyle=none;html=1;" edge="1" parent="1" source="17" target="12">
                    <mxGeometry relative="1" as="geometry">
                        <mxPoint x="385" y="120" as="sourcePoint"/>
                    </mxGeometry>
                </mxCell>
                <mxCell id="15" value="Yes" style="edgeLabel;html=1;align=center;verticalAlign=middle;resizable=0;points=[];" vertex="1" connectable="0" parent="14">
                    <mxGeometry x="0.168" y="6" relative="1" as="geometry">
                        <mxPoint as="offset"/>
                    </mxGeometry>
                </mxCell>
                <mxCell id="11" style="edgeStyle=none;html=1;" edge="1" parent="1" source="6" target="9">
                    <mxGeometry relative="1" as="geometry"/>
                </mxCell>
                <mxCell id="6" value="Prompt user to add a LibrePass account (they need to input both username and server address)" style="html=1;dashed=0;whitespace=wrap;container=0;whiteSpace=wrap;" vertex="1" parent="1">
                    <mxGeometry x="570" y="75" width="190" height="65" as="geometry"/>
                </mxCell>
                <mxCell id="13" style="edgeStyle=none;html=1;" edge="1" parent="1" source="9" target="12">
                    <mxGeometry relative="1" as="geometry"/>
                </mxCell>
                <mxCell id="9" value="Save to exension config" style="shape=cylinder;whiteSpace=wrap;html=1;boundedLbl=1;backgroundOutline=1;" vertex="1" parent="1">
                    <mxGeometry x="635" y="260.5" width="60" height="80" as="geometry"/>
                </mxCell>
                <mxCell id="23" style="edgeStyle=none;html=1;" edge="1" parent="1" source="10" target="22">
                    <mxGeometry relative="1" as="geometry"/>
                </mxCell>
                <mxCell id="10" value="Prompt user for the master password of the LP account" style="html=1;dashed=0;whitespace=wrap;whiteSpace=wrap;" vertex="1" parent="1">
                    <mxGeometry x="322.5" y="400" width="125" height="75" as="geometry"/>
                </mxCell>
                <mxCell id="18" style="edgeStyle=none;html=1;" edge="1" parent="1" source="12" target="10">
                    <mxGeometry relative="1" as="geometry"/>
                </mxCell>
                <mxCell id="19" value="User selects an account" style="edgeLabel;html=1;align=center;verticalAlign=middle;resizable=0;points=[];" vertex="1" connectable="0" parent="18">
                    <mxGeometry x="-0.4629" relative="1" as="geometry">
                        <mxPoint y="19" as="offset"/>
                    </mxGeometry>
                </mxCell>
                <mxCell id="21" value="User selects the add account button" style="edgeStyle=none;html=1;exitX=1;exitY=0;exitDx=0;exitDy=0;" edge="1" parent="1" source="12" target="6">
                    <mxGeometry relative="1" as="geometry"/>
                </mxCell>
                <mxCell id="12" value="Display the account selection screen" style="html=1;dashed=0;whitespace=wrap;whiteSpace=wrap;" vertex="1" parent="1">
                    <mxGeometry x="322.5" y="268" width="125" height="65" as="geometry"/>
                </mxCell>
                <mxCell id="17" value="Are there any saved LibrePass account(s)?" style="shape=hexagon;perimeter=hexagonPerimeter2;whiteSpace=wrap;html=1;size=0.25" vertex="1" parent="1">
                    <mxGeometry x="305" y="80" width="160" height="55" as="geometry"/>
                </mxCell>
                <mxCell id="27" style="edgeStyle=none;html=1;" edge="1" parent="1" source="22" target="26">
                    <mxGeometry relative="1" as="geometry"/>
                </mxCell>
                <mxCell id="28" value="Pass OK" style="edgeLabel;html=1;align=center;verticalAlign=middle;resizable=0;points=[];" vertex="1" connectable="0" parent="27">
                    <mxGeometry x="0.3684" y="-1" relative="1" as="geometry">
                        <mxPoint x="-24" y="1" as="offset"/>
                    </mxGeometry>
                </mxCell>
                <mxCell id="22" value="Check if password is correct for the selected account using the server API" style="shape=cloud;whiteSpace=wrap;html=1;" vertex="1" parent="1">
                    <mxGeometry x="500" y="381.25" width="150" height="112.5" as="geometry"/>
                </mxCell>
                <mxCell id="26" value="Open vault" style="shape=parallelogram;perimeter=parallelogramPerimeter;whiteSpace=wrap;html=1;dashed=0;" vertex="1" parent="1">
                    <mxGeometry x="720" y="410" width="100" height="50" as="geometry"/>
                </mxCell>
            </root>
        </mxGraphModel>
    </diagram>
</mxfile>